FILE "Trabant 600 (2000)(NTSC)(PD).bin" BINARY
  TRACK 01 MODE2/2352
    INDEX 01 00:00:00
FILE "Trabant 600 (2000)(NTSC)(PD).mp3" MP3
  TRACK 02 AUDIO
    PREGAP 00:02:00
    INDEX 01 00:00:00
FILE "Trabant 600 (2000)(NTSC)(PD).mp3" MP3
  TRACK 03 AUDIO
    INDEX 01 00:00:00
